<svg xmlns="http://www.w3.org/2000/svg" xmlns:xlink="http://www.w3.org/1999/xlink" width="1920" zoomAndPan="magnify" viewBox="0 0 1440 809.999993" height="1080" preserveAspectRatio="xMidYMid meet" version="1.0"><defs><clipPath id="32ed81c3e8"><path d="M 1289 428 L 1359.351562 428 L 1359.351562 509 L 1289 509 Z M 1289 428 " clip-rule="nonzero"/></clipPath></defs><path fill="#000000" d="M 594.519531 268.445312 C 590.722656 271.28125 588.824219 275.0625 587.878906 279.789062 L 587.878906 266.558594 L 565.101562 266.558594 L 565.101562 344.066406 L 586.925781 344.066406 L 586.925781 300.585938 C 586.925781 296.804688 587.878906 293.96875 588.824219 291.132812 C 589.371094 290.050781 590.222656 288.65625 591.390625 287.484375 C 592.261719 286.613281 593.304688 285.863281 594.519531 285.460938 C 597.367188 284.515625 600.214844 283.570312 604.007812 283.570312 L 608.753906 283.570312 C 609.867188 283.570312 610.652344 283.894531 611.304688 284.164062 C 611.761719 284.351562 612.15625 284.515625 612.550781 284.515625 L 612.550781 265.609375 C 612.085938 265.152344 611.625 264.914062 611.164062 264.792969 C 610.96875 264.742188 610.773438 264.710938 610.578125 264.691406 L 610.554688 264.691406 C 610.382812 264.675781 610.214844 264.667969 610.042969 264.667969 L 609.984375 264.664062 L 605.90625 264.664062 C 601.160156 264.664062 597.367188 265.609375 594.519531 268.445312 Z M 594.519531 268.445312 " fill-opacity="1" fill-rule="nonzero"/><path fill="#000000" d="M 632.476562 342.175781 C 628.683594 339.34375 624.886719 336.507812 622.988281 331.78125 C 621.089844 327.054688 620.140625 322.328125 620.140625 315.710938 L 620.140625 265.613281 L 641.964844 265.613281 L 641.964844 311.929688 C 641.964844 316.65625 642.914062 321.382812 645.761719 324.21875 C 648.609375 327.054688 651.457031 328 656.199219 328 C 659.046875 328 661.894531 327.054688 664.742188 326.105469 L 670.433594 320.4375 C 671.382812 317.601562 672.332031 314.765625 672.332031 311.929688 L 672.332031 266.558594 L 694.15625 266.558594 L 694.15625 344.066406 L 672.332031 344.066406 L 672.332031 330.835938 L 671.382812 330.835938 C 669.484375 335.558594 666.636719 339.34375 661.894531 341.234375 C 658.097656 344.066406 653.351562 345.015625 646.710938 345.015625 C 641.964844 345.957031 637.222656 345.015625 632.476562 342.175781 Z M 632.476562 342.175781 " fill-opacity="1" fill-rule="nonzero"/><path fill="#000000" d="M 708.390625 334.613281 C 711.238281 338.398438 715.984375 341.234375 720.726562 343.121094 C 726.421875 345.015625 732.113281 345.957031 738.757812 345.957031 C 745.398438 345.957031 752.042969 345.015625 756.785156 343.121094 C 762.480469 341.234375 766.277344 338.398438 769.121094 334.613281 C 771.96875 330.835938 773.867188 326.109375 773.867188 321.382812 C 773.867188 314.765625 771.96875 310.984375 768.171875 307.203125 C 764.378906 304.367188 758.683594 301.53125 750.144531 299.640625 L 736.859375 296.808594 C 734.882812 296.808594 733.160156 296.292969 731.695312 295.667969 C 730.789062 295.277344 729.976562 294.847656 729.265625 294.464844 C 728.925781 294.285156 728.613281 294.117188 728.320312 293.96875 C 727.371094 293.023438 726.421875 291.136719 726.421875 289.246094 C 726.421875 288.472656 726.578125 287.699219 726.832031 286.992188 C 727.195312 285.96875 727.757812 285.078125 728.320312 284.515625 C 729.265625 283.570312 730.214844 282.628906 732.113281 281.683594 C 734.011719 280.738281 735.910156 280.738281 738.757812 280.738281 C 742.550781 280.738281 746.347656 281.683594 748.246094 283.570312 C 750.144531 285.460938 752.042969 287.355469 752.042969 290.1875 L 752.042969 291.136719 L 771.96875 291.136719 L 771.96875 290.1875 C 771.96875 285.460938 771.019531 281.683594 768.171875 277.902344 C 765.714844 274.636719 762.554688 272.785156 758.683594 270.515625 C 758.066406 270.152344 757.4375 269.78125 756.785156 269.394531 C 752.042969 266.558594 745.398438 265.613281 738.757812 265.613281 C 732.113281 265.613281 726.421875 266.558594 721.675781 268.449219 C 716.929688 270.339844 713.136719 273.175781 710.289062 276.957031 C 707.441406 280.738281 706.492188 285.460938 706.492188 290.1875 C 706.492188 295.859375 708.390625 300.585938 712.1875 304.367188 C 715.984375 309.09375 721.675781 310.984375 729.265625 312.875 L 742.550781 315.710938 C 747.296875 316.65625 750.144531 317.601562 751.09375 318.546875 C 752.042969 319.492188 752.988281 321.382812 752.988281 323.273438 C 752.988281 325.164062 752.042969 327.054688 751.09375 328 C 750.144531 328.945312 748.246094 329.890625 746.347656 330.835938 C 744.449219 331.78125 742.550781 331.78125 739.703125 331.78125 C 734.960938 331.78125 732.113281 330.835938 729.265625 328.945312 C 726.421875 327.054688 725.472656 324.21875 724.523438 321.382812 L 724.523438 320.4375 L 703.644531 320.4375 L 703.644531 321.382812 C 703.644531 326.109375 705.542969 330.835938 708.390625 334.613281 Z M 708.390625 334.613281 " fill-opacity="1" fill-rule="nonzero"/><path fill="#000000" d="M 796.640625 340.285156 C 792.847656 336.503906 790 330.835938 790 322.328125 L 790 281.679688 L 779.558594 281.679688 L 779.558594 265.609375 L 790.949219 265.609375 L 790.949219 246.707031 L 812.777344 246.707031 L 812.777344 265.609375 L 827.007812 265.609375 L 827.007812 281.679688 L 812.777344 281.679688 L 812.777344 319.492188 C 812.777344 323.269531 813.726562 326.105469 815.621094 327.054688 C 817.519531 328.945312 819.417969 328.945312 823.210938 328.945312 L 827.957031 328.945312 L 827.957031 345.011719 C 827.007812 345.011719 825.109375 345.011719 823.210938 345.957031 L 817.519531 345.957031 C 807.078125 345.957031 800.433594 344.066406 796.640625 340.285156 Z M 796.640625 340.285156 " fill-opacity="1" fill-rule="nonzero"/><path fill="#000000" d="M 838.390625 327.050781 C 841.238281 333.667969 845.980469 338.394531 851.679688 341.230469 C 857.375 344.066406 864.960938 345.957031 874.449219 346.902344 C 879.191406 346.902344 884.894531 346.902344 888.6875 345.011719 C 892.480469 344.066406 896.277344 342.175781 899.121094 339.339844 C 900.375 338.09375 901.445312 336.84375 902.414062 335.597656 C 902.777344 335.125 903.125 334.652344 903.464844 334.183594 C 903.726562 333.820312 903.984375 333.453125 904.238281 333.089844 C 904.539062 332.652344 904.835938 332.21875 905.128906 331.78125 L 905.765625 330.832031 C 906.277344 330.070312 906.71875 329.300781 907.109375 328.539062 C 907.347656 328.078125 907.5625 327.621094 907.765625 327.160156 C 907.972656 326.699219 908.164062 326.234375 908.34375 325.769531 L 908.550781 325.234375 L 908.6875 324.855469 C 908.996094 324.011719 909.277344 323.167969 909.558594 322.324219 L 909.558594 321.378906 L 889.636719 321.378906 C 888.6875 323.269531 887.738281 325.160156 886.789062 326.105469 C 886.03125 326.863281 885.273438 327.46875 884.515625 327.980469 C 883.375 328.75 882.234375 329.320312 881.089844 329.886719 C 879.191406 330.832031 876.347656 330.832031 873.5 330.832031 C 872.609375 330.832031 871.769531 330.78125 870.972656 330.675781 L 870.730469 330.644531 C 870.328125 330.585938 869.9375 330.515625 869.550781 330.425781 L 869.097656 330.316406 C 868.605469 330.191406 868.125 330.042969 867.65625 329.871094 C 866.394531 329.414062 865.203125 328.789062 864.011719 327.996094 C 861.167969 327.050781 859.269531 324.214844 857.375 321.378906 C 857.234375 320.832031 857.097656 320.300781 856.960938 319.78125 C 856.167969 316.734375 855.476562 314.078125 855.476562 310.039062 L 909.558594 310.039062 L 909.558594 303.421875 C 909.558594 295.859375 907.660156 288.296875 904.8125 282.625 C 901.019531 276.953125 897.226562 272.226562 891.535156 269.390625 C 885.839844 266.558594 879.191406 264.664062 871.601562 264.664062 C 864.011719 264.664062 857.375 265.609375 851.679688 269.390625 C 845.980469 273.171875 841.238281 277.898438 838.390625 283.570312 C 835.542969 290.1875 833.648438 296.804688 833.648438 305.308594 C 833.648438 313.816406 835.542969 321.378906 838.390625 327.050781 Z M 855.652344 296.804688 L 889.429688 296.804688 C 889.296875 295.597656 889.109375 294.46875 888.886719 293.417969 L 888.765625 292.871094 L 888.71875 292.675781 L 888.699219 292.582031 L 888.589844 292.136719 C 888.519531 291.859375 888.449219 291.589844 888.375 291.324219 C 888.171875 290.582031 887.953125 289.886719 887.738281 289.242188 C 886.789062 286.40625 883.945312 283.570312 882.046875 282.625 C 879.191406 280.734375 876.347656 280.734375 873.5 280.734375 C 869.707031 280.734375 866.859375 281.679688 864.960938 283.570312 C 864.664062 283.867188 864.34375 284.164062 864.011719 284.464844 L 863.453125 284.960938 C 861.796875 286.433594 859.988281 288.039062 859.269531 290.1875 C 856.839844 292.003906 855.964844 294.210938 855.652344 296.804688 Z M 855.652344 296.804688 " fill-opacity="1" fill-rule="evenodd"/><path fill="#000000" d="M 932.335938 341.230469 C 927.59375 338.398438 923.796875 333.667969 920.949219 327.054688 C 918.105469 321.382812 917.15625 313.820312 917.15625 305.3125 C 917.15625 296.804688 918.105469 289.242188 920.949219 283.570312 C 923.796875 277.902344 927.59375 273.175781 932.335938 269.394531 C 937.078125 265.613281 942.769531 264.667969 949.417969 264.667969 C 955.109375 264.667969 959.855469 265.613281 964.597656 268.449219 C 968.390625 271.285156 972.1875 275.0625 974.078125 279.792969 L 974.078125 239.144531 L 995.914062 239.144531 L 995.914062 344.066406 L 974.078125 344.066406 L 974.078125 330.835938 C 972.1875 335.558594 968.390625 339.339844 964.597656 342.175781 C 960.800781 345.015625 955.109375 345.957031 949.417969 345.957031 C 942.769531 345.957031 937.078125 344.066406 932.335938 341.230469 Z M 965.542969 325.160156 C 968.390625 323.273438 970.289062 320.4375 971.234375 317.601562 C 973.132812 313.820312 973.132812 310.039062 973.132812 305.3125 C 973.132812 300.585938 972.1875 296.804688 971.234375 293.023438 C 969.34375 289.242188 967.445312 287.351562 965.542969 285.460938 C 963.652344 283.570312 959.855469 282.625 956.0625 282.625 C 952.265625 282.625 949.417969 283.570312 946.574219 285.460938 C 943.71875 287.351562 941.820312 290.1875 940.875 293.023438 C 939.925781 295.859375 938.976562 300.585938 938.976562 305.3125 C 938.976562 306.328125 939.019531 307.300781 939.097656 308.238281 C 939.125 308.566406 939.15625 308.894531 939.191406 309.214844 C 939.234375 309.582031 939.277344 309.945312 939.328125 310.304688 C 939.382812 310.6875 939.441406 311.066406 939.503906 311.441406 L 939.523438 311.554688 C 939.882812 313.660156 940.378906 315.628906 940.875 317.601562 C 941.636719 320.652344 943.644531 322.472656 945.386719 324.054688 L 945.398438 324.066406 L 945.5 324.160156 C 945.75 324.386719 945.996094 324.609375 946.226562 324.828125 L 946.574219 325.160156 C 949.417969 327.054688 952.265625 328 956.0625 328 C 959.855469 328 962.699219 327.054688 965.542969 325.160156 Z M 965.542969 325.160156 " fill-opacity="1" fill-rule="evenodd"/><path fill="#000000" d="M 490.140625 483.019531 C 494.886719 491.527344 500.578125 497.199219 508.171875 501.925781 C 515.761719 506.652344 525.25 508.542969 535.6875 508.542969 C 546.125 508.542969 555.613281 506.652344 563.207031 501.925781 C 570.796875 497.199219 576.492188 491.527344 581.234375 483.019531 C 585.980469 474.511719 587.878906 465.058594 587.878906 453.71875 C 587.878906 442.375 585.980469 432.921875 581.234375 424.414062 C 576.492188 415.90625 570.796875 410.238281 563.207031 405.511719 C 555.613281 400.785156 546.125 398.894531 535.6875 398.894531 C 525.25 398.894531 515.761719 400.785156 508.171875 405.511719 C 500.578125 410.238281 494.886719 415.90625 490.140625 424.414062 C 485.394531 432.921875 483.496094 442.375 483.496094 453.71875 C 483.496094 465.058594 486.34375 474.511719 490.140625 483.019531 Z M 560.359375 473.566406 C 558.460938 478.292969 554.667969 483.019531 550.871094 485.855469 C 546.125 488.691406 541.382812 489.636719 535.6875 490.582031 C 529.996094 490.582031 524.300781 488.691406 520.507812 485.855469 C 516.710938 483.019531 513.863281 479.238281 511.015625 473.566406 C 508.171875 467.898438 507.21875 462.226562 507.21875 454.664062 C 507.21875 447.101562 509.117188 441.429688 511.015625 435.757812 C 512.914062 430.085938 515.761719 426.304688 520.507812 423.46875 C 525.25 420.632812 529.996094 418.746094 535.6875 418.746094 C 541.382812 418.746094 547.074219 420.632812 550.871094 423.46875 C 554.667969 426.304688 558.460938 430.085938 560.359375 435.757812 C 563.207031 441.429688 564.15625 447.101562 564.15625 454.664062 C 564.15625 462.226562 562.257812 468.84375 560.359375 473.566406 Z M 560.359375 473.566406 " fill-opacity="1" fill-rule="evenodd"/><path fill="#000000" d="M 620.140625 441.425781 C 622.039062 436.703125 624.886719 433.863281 629.628906 431.03125 C 633.425781 428.195312 638.167969 427.25 644.8125 427.25 C 653.351562 427.25 659.996094 430.085938 664.738281 434.808594 C 669.484375 439.535156 671.382812 447.101562 671.382812 456.550781 L 671.382812 506.648438 L 649.558594 506.648438 L 649.558594 460.332031 C 649.558594 455.605469 648.609375 450.878906 645.761719 448.042969 C 642.914062 445.210938 640.066406 444.261719 635.324219 444.261719 C 633.167969 444.261719 631.011719 444.804688 628.859375 445.476562 C 628.167969 445.695312 627.476562 445.921875 626.78125 446.152344 L 621.089844 451.824219 C 620.140625 454.660156 619.191406 457.496094 619.191406 461.277344 L 619.191406 506.648438 L 597.367188 506.648438 L 597.367188 428.195312 L 620.140625 428.195312 Z M 620.140625 441.425781 " fill-opacity="1" fill-rule="nonzero"/><path fill="#000000" d="M 724.523438 414.960938 C 722.625 413.070312 720.726562 410.234375 720.726562 407.402344 C 720.726562 404.5625 721.675781 401.726562 724.523438 399.839844 C 726.421875 397.945312 729.269531 397.003906 733.0625 397.003906 C 734.539062 397.003906 736.011719 397.253906 737.488281 397.761719 C 738.144531 397.988281 738.796875 398.261719 739.453125 398.589844 C 739.878906 398.796875 740.300781 399.03125 740.722656 399.28125 C 741.015625 399.457031 741.3125 399.644531 741.605469 399.839844 C 743.5 401.726562 744.453125 404.5625 744.453125 407.402344 C 744.453125 408.621094 744.273438 409.839844 743.921875 410.984375 C 743.457031 412.5 742.683594 413.886719 741.605469 414.960938 C 739.707031 416.851562 736.859375 418.742188 733.0625 418.742188 C 729.269531 418.742188 726.421875 417.796875 724.523438 414.960938 Z M 724.523438 414.960938 " fill-opacity="1" fill-rule="nonzero"/><path fill="#000000" d="M 789.046875 431.03125 C 784.300781 433.863281 781.457031 436.703125 779.558594 441.425781 L 779.558594 428.195312 L 756.785156 428.195312 L 756.785156 506.648438 L 778.609375 506.648438 L 778.609375 461.277344 C 778.609375 457.496094 779.558594 454.660156 780.507812 451.824219 L 786.199219 446.152344 C 789.046875 445.210938 791.898438 444.261719 794.742188 444.261719 C 799.488281 444.261719 802.332031 445.210938 805.179688 448.042969 C 808.023438 450.878906 808.972656 455.605469 808.972656 460.332031 L 808.972656 506.648438 L 830.800781 506.648438 L 830.800781 456.550781 C 830.800781 447.101562 828.902344 439.535156 824.160156 434.808594 C 819.410156 430.085938 812.765625 427.25 804.230469 427.25 C 797.589844 427.25 792.847656 428.195312 789.046875 431.03125 Z M 789.046875 431.03125 " fill-opacity="1" fill-rule="nonzero"/><path fill="#000000" d="M 859.269531 503.8125 C 853.578125 500.976562 848.835938 496.25 845.980469 489.636719 C 843.132812 483.960938 841.238281 476.398438 841.238281 467.894531 C 841.238281 459.386719 843.132812 452.769531 845.980469 446.152344 C 848.835938 439.535156 853.578125 435.753906 859.269531 431.976562 C 864.960938 428.195312 871.601562 427.25 879.191406 427.25 C 886.789062 427.25 893.429688 429.140625 899.121094 431.976562 C 904.8125 434.808594 908.609375 439.535156 912.402344 445.210938 C 916.207031 450.878906 917.15625 458.441406 917.15625 466.003906 L 917.15625 472.621094 L 864.960938 472.621094 C 864.960938 475.054688 865.214844 476.988281 865.585938 478.808594 L 865.59375 478.832031 L 865.679688 479.238281 L 865.804688 479.789062 C 865.90625 480.234375 866.015625 480.675781 866.128906 481.121094 L 866.449219 482.367188 C 866.585938 482.882812 866.722656 483.414062 866.859375 483.960938 C 868.757812 486.800781 870.652344 489.636719 873.5 490.582031 C 874.730469 491.398438 875.957031 492.035156 877.265625 492.5 C 878.984375 493.109375 880.835938 493.414062 882.996094 493.414062 C 885.839844 493.414062 888.6875 493.414062 890.585938 492.46875 L 890.617188 492.453125 L 891.433594 492.042969 L 891.804688 491.851562 C 892.535156 491.46875 893.269531 491.058594 894 490.5625 C 894.757812 490.050781 895.519531 489.445312 896.277344 488.691406 C 897.226562 487.746094 898.175781 485.851562 899.121094 483.960938 L 919.054688 483.960938 L 919.054688 484.90625 C 918.105469 487.746094 917.15625 490.582031 915.257812 493.414062 L 915.21875 493.476562 C 913.324219 496.292969 911.433594 499.105469 908.609375 501.921875 C 905.765625 504.757812 901.96875 506.648438 898.175781 507.59375 C 894.378906 509.484375 888.6875 509.484375 883.945312 509.484375 C 872.550781 508.539062 864.960938 506.648438 859.269531 503.8125 Z M 897.019531 459.386719 L 865.285156 459.386719 C 865.644531 456.792969 866.25 454.585938 866.859375 452.769531 C 867.207031 451.722656 867.816406 450.804688 868.542969 449.96875 C 869.777344 448.539062 871.355469 447.34375 872.550781 446.152344 C 874.449219 444.261719 877.292969 443.316406 881.089844 443.316406 C 883.945312 443.316406 886.789062 443.316406 889.636719 445.210938 C 891.535156 446.152344 894.378906 448.988281 895.328125 451.824219 C 895.605469 452.652344 895.882812 453.5625 896.136719 454.550781 C 896.503906 455.992188 896.824219 457.605469 897.019531 459.386719 Z M 897.019531 459.386719 " fill-opacity="1" fill-rule="evenodd"/><path fill="#000000" d="M 1052.847656 503.8125 C 1047.148438 500.976562 1042.40625 496.25 1039.558594 489.636719 C 1036.714844 483.019531 1034.816406 476.398438 1034.816406 467.894531 C 1034.816406 459.386719 1036.714844 451.824219 1039.558594 446.152344 C 1042.40625 440.480469 1047.148438 435.753906 1052.847656 431.976562 C 1058.539062 429.140625 1065.183594 427.25 1073.71875 427.25 C 1081.308594 427.25 1088.90625 429.140625 1094.597656 431.976562 C 1100.296875 434.808594 1105.03125 439.535156 1107.878906 446.152344 C 1110.730469 451.824219 1112.621094 459.386719 1112.621094 467.894531 C 1112.621094 476.398438 1110.730469 483.960938 1107.878906 489.636719 C 1105.03125 495.308594 1100.296875 500.03125 1094.597656 503.8125 C 1088.90625 506.648438 1082.253906 508.539062 1073.71875 508.539062 C 1066.128906 508.539062 1059.492188 506.648438 1052.847656 503.8125 Z M 1083.214844 488.691406 C 1086.0625 486.800781 1087.960938 483.960938 1088.90625 480.183594 C 1089.859375 476.402344 1090.804688 472.621094 1090.804688 466.949219 C 1090.804688 462.222656 1089.859375 457.496094 1088.90625 453.714844 C 1087.960938 449.933594 1085.117188 447.101562 1083.214844 445.210938 C 1082.601562 444.597656 1081.789062 444.085938 1080.84375 443.675781 C 1078.859375 442.808594 1076.292969 442.371094 1073.71875 442.371094 C 1069.929688 442.371094 1067.082031 443.316406 1065.183594 445.210938 C 1062.339844 447.101562 1060.4375 449.933594 1059.492188 453.714844 C 1058.539062 457.496094 1057.59375 461.277344 1057.59375 466.949219 C 1057.59375 471.675781 1058.539062 476.402344 1059.492188 480.183594 C 1060.4375 483.960938 1063.285156 486.800781 1065.183594 488.691406 C 1068.027344 490.582031 1070.875 491.523438 1074.671875 491.523438 C 1075.652344 491.523438 1076.632812 491.410156 1077.609375 491.1875 C 1079.476562 490.757812 1081.34375 489.929688 1083.214844 488.691406 Z M 1083.214844 488.691406 " fill-opacity="1" fill-rule="evenodd"/><path fill="#000000" d="M 1124.019531 496.25 C 1126.863281 500.03125 1129.710938 502.867188 1133.5 504.757812 C 1137.300781 507.59375 1142.042969 508.539062 1144.898438 508.539062 C 1148.6875 508.539062 1151.535156 507.59375 1154.386719 506.648438 C 1157.230469 505.703125 1160.078125 503.8125 1161.96875 501.921875 C 1163.867188 500.03125 1165.765625 498.140625 1167.667969 495.308594 L 1167.667969 508.539062 L 1189.492188 508.539062 L 1189.492188 454.660156 C 1189.492188 448.988281 1188.546875 444.261719 1185.699219 440.480469 C 1182.855469 436.703125 1180 432.921875 1174.300781 431.03125 C 1168.613281 429.140625 1162.921875 428.195312 1156.277344 428.195312 C 1149.640625 428.195312 1142.988281 429.140625 1138.246094 431.03125 C 1133.5 432.921875 1129.710938 435.753906 1126.863281 439.539062 C 1124.019531 443.316406 1122.121094 448.042969 1122.121094 452.769531 L 1122.121094 453.714844 L 1142.042969 453.714844 L 1142.042969 452.769531 C 1142.988281 449.941406 1144.878906 448.054688 1146.773438 446.171875 L 1146.796875 446.152344 C 1148.6875 444.261719 1152.488281 443.316406 1156.277344 443.316406 C 1160.078125 443.316406 1163.867188 444.261719 1165.765625 446.152344 C 1167.667969 448.042969 1168.613281 450.878906 1168.613281 454.660156 L 1168.613281 459.210938 L 1150.585938 460.332031 C 1141.089844 460.332031 1133.5 463.167969 1127.808594 466.949219 C 1123.066406 471.675781 1120.21875 476.402344 1120.21875 483.960938 C 1120.21875 488.691406 1121.175781 492.46875 1124.019531 496.25 Z M 1168.613281 472.523438 L 1153.433594 473.566406 C 1149.640625 473.566406 1145.84375 474.511719 1143.953125 476.398438 C 1142.042969 478.292969 1141.089844 480.183594 1141.089844 483.019531 C 1141.089844 485.851562 1142.042969 487.746094 1143.953125 489.636719 C 1145.84375 491.527344 1148.6875 492.46875 1152.488281 492.46875 C 1155.332031 492.46875 1158.175781 491.527344 1161.023438 490.578125 C 1163.867188 489.636719 1165.765625 487.746094 1166.710938 485.851562 C 1168.613281 483.960938 1168.613281 481.128906 1168.613281 478.292969 Z M 1168.613281 472.523438 " fill-opacity="1" fill-rule="evenodd"/><path fill="#000000" d="M 1227.449219 441.425781 C 1229.347656 436.703125 1232.191406 433.863281 1236.9375 431.03125 C 1240.738281 428.195312 1245.480469 427.25 1252.117188 427.25 C 1260.660156 427.25 1267.296875 430.085938 1272.050781 434.808594 C 1276.792969 439.535156 1278.695312 447.101562 1278.695312 456.550781 L 1278.695312 506.648438 L 1256.863281 506.648438 L 1256.863281 460.332031 C 1256.863281 455.605469 1255.917969 450.878906 1253.070312 448.042969 C 1250.226562 445.210938 1247.382812 444.261719 1242.636719 444.261719 C 1239.792969 444.261719 1236.9375 445.210938 1234.085938 446.152344 L 1228.394531 451.824219 C 1227.449219 454.660156 1226.496094 457.496094 1226.496094 461.277344 L 1226.496094 506.648438 L 1204.679688 506.648438 L 1204.679688 428.195312 L 1227.449219 428.195312 Z M 1227.449219 441.425781 " fill-opacity="1" fill-rule="nonzero"/><g clip-path="url(#32ed81c3e8)"><path fill="#000000" d="M 1293.875 497.199219 C 1296.71875 500.976562 1301.457031 503.8125 1306.199219 505.707031 C 1311.90625 507.59375 1317.597656 508.539062 1324.234375 508.539062 C 1330.878906 508.539062 1337.523438 507.59375 1342.265625 505.707031 C 1347.964844 503.8125 1351.753906 500.976562 1354.601562 497.199219 C 1357.445312 493.414062 1359.34375 488.691406 1359.34375 483.960938 C 1359.34375 477.347656 1357.445312 473.566406 1353.65625 469.785156 C 1349.855469 466.949219 1344.167969 464.113281 1335.621094 462.222656 L 1322.34375 459.386719 C 1318.542969 459.386719 1315.699219 457.496094 1313.796875 456.550781 C 1312.851562 455.605469 1311.90625 453.714844 1311.90625 451.824219 C 1311.90625 449.933594 1312.851562 448.042969 1313.796875 447.101562 C 1313.875 447.027344 1313.949219 446.953125 1314.027344 446.878906 C 1314.160156 446.742188 1314.296875 446.613281 1314.429688 446.476562 C 1314.464844 446.445312 1314.507812 446.410156 1314.542969 446.378906 C 1315.292969 445.675781 1316.179688 444.96875 1317.597656 444.261719 C 1319.496094 443.316406 1321.386719 443.316406 1324.234375 443.316406 C 1328.03125 443.316406 1331.824219 444.261719 1333.722656 446.152344 C 1335.015625 447.4375 1336.304688 448.722656 1337 450.304688 C 1337.328125 451.050781 1337.523438 451.863281 1337.523438 452.769531 L 1337.523438 453.714844 L 1357.445312 453.714844 L 1357.445312 452.769531 C 1357.445312 448.042969 1356.5 444.261719 1353.65625 440.480469 C 1350.808594 436.703125 1347.011719 434.808594 1342.265625 431.972656 C 1337.523438 429.140625 1330.878906 428.195312 1324.234375 428.195312 C 1317.597656 428.195312 1311.90625 429.140625 1307.164062 431.03125 C 1302.410156 432.921875 1298.609375 435.753906 1295.765625 439.539062 C 1292.921875 443.316406 1291.972656 448.042969 1291.972656 452.769531 C 1291.972656 458.441406 1293.875 463.167969 1297.664062 466.949219 C 1301.464844 471.675781 1307.164062 473.566406 1314.753906 475.457031 L 1328.03125 478.292969 C 1330.640625 478.8125 1332.675781 479.328125 1334.128906 479.847656 C 1335.292969 480.261719 1336.09375 480.683594 1336.535156 481.09375 L 1336.566406 481.128906 C 1336.988281 481.542969 1337.402344 482.140625 1337.742188 482.84375 C 1338.171875 483.734375 1338.46875 484.792969 1338.46875 485.851562 C 1338.46875 487.746094 1337.523438 489.636719 1336.566406 490.578125 C 1335.621094 491.527344 1333.722656 492.46875 1331.824219 493.414062 C 1329.933594 494.359375 1328.03125 494.359375 1325.1875 494.359375 C 1320.441406 494.359375 1317.597656 493.414062 1314.753906 491.527344 C 1311.90625 489.636719 1310.953125 486.800781 1310.007812 483.960938 L 1310.007812 483.019531 L 1289.128906 483.019531 L 1289.128906 483.960938 C 1289.128906 488.691406 1291.027344 493.414062 1293.875 497.199219 Z M 1293.875 497.199219 " fill-opacity="1" fill-rule="nonzero"/></g><path fill="#000000" d="M 482.546875 257.105469 L 482.546875 239.144531 L 566.050781 239.144531 L 566.050781 257.105469 L 535.6875 257.105469 L 535.6875 344.066406 L 513.863281 344.066406 L 513.863281 257.105469 Z M 482.546875 257.105469 " fill-opacity="1" fill-rule="nonzero"/><path fill="#000000" d="M 707.441406 401.726562 L 685.617188 401.726562 L 685.617188 507.59375 L 707.441406 507.59375 Z M 707.441406 401.726562 " fill-opacity="1" fill-rule="nonzero"/><path fill="#000000" d="M 721.675781 428.195312 L 743.5 428.195312 L 743.5 506.648438 L 721.675781 506.648438 Z M 721.675781 428.195312 " fill-opacity="1" fill-rule="nonzero"/><path fill="#000000" d="M 980.734375 401.726562 L 958.910156 401.726562 L 958.910156 506.648438 L 1027.226562 506.648438 L 1027.226562 488.691406 L 980.734375 488.691406 Z M 980.734375 401.726562 " fill-opacity="1" fill-rule="nonzero"/><path fill="#007c0f" d="M 292.585938 334.085938 C 303.847656 340.519531 315.113281 346.953125 326.230469 353.386719 C 295.804688 386.132812 276.492188 416.539062 256.015625 457.476562 C 286.441406 417.710938 319.207031 377.945312 357.824219 348.121094 L 271.8125 299 C 267.132812 304.265625 263.035156 309.527344 258.9375 314.789062 C 270.054688 321.222656 281.320312 327.65625 292.585938 334.085938 Z M 292.585938 334.085938 " fill-opacity="1" fill-rule="nonzero"/><path fill="#007c0f" d="M 412.242188 262.746094 C 423.945312 368.003906 371.28125 471.511719 277.664062 521.800781 C 254.84375 509.519531 240.800781 497.824219 223.832031 483.207031 C 236.117188 442.269531 260.695312 394.90625 285.269531 360.402344 C 276.792969 355.4375 268.460938 350.613281 260.128906 345.792969 C 251.78125 340.964844 243.4375 336.136719 234.949219 331.164062 C 211.542969 358.648438 191.0625 387.304688 174.09375 418.878906 C 147.765625 372.683594 137.234375 314.207031 143.082031 262.746094 C 191.0625 269.761719 239.628906 256.898438 277.664062 226.488281 C 315.695312 256.898438 363.675781 269.761719 412.242188 262.746094 Z M 277.078125 493.730469 C 265.375 486.128906 254.257812 477.941406 243.726562 468.585938 C 261.277344 428.824219 285.269531 389.058594 312.183594 359.816406 L 316.28125 355.140625 L 243.140625 312.449219 L 230.851562 305.433594 C 211.542969 328.824219 195.160156 351.628906 180.53125 376.777344 C 170.585938 350.460938 165.320312 320.054688 164.734375 288.476562 C 207.449219 287.890625 241.386719 278.535156 277.078125 255.144531 C 313.355469 277.949219 346.707031 287.304688 389.421875 287.890625 C 388.25 375.605469 350.804688 445.78125 277.078125 493.730469 Z M 277.078125 493.730469 " fill-opacity="1" fill-rule="evenodd"/><path fill="#007c0f" d="M 228.511719 398.414062 L 233.777344 389.640625 C 234.949219 391.394531 236.707031 393.148438 239.628906 395.488281 C 240.214844 396.074219 241.386719 396.660156 241.972656 396.074219 C 243.726562 395.488281 244.894531 394.320312 246.652344 393.734375 C 247.824219 393.148438 248.40625 391.980469 247.824219 391.394531 C 247.25 390.535156 246.8125 389.816406 246.382812 389.097656 C 245.9375 388.351562 245.492188 387.609375 244.894531 386.71875 C 243.726562 384.964844 242.554688 383.792969 240.800781 382.625 C 241.09375 382.332031 241.386719 381.894531 241.679688 381.453125 C 241.972656 381.015625 242.265625 380.578125 242.554688 380.285156 C 243.140625 379.113281 242.554688 378.53125 241.972656 377.945312 L 238.460938 376.191406 C 237.875 375.605469 236.707031 375.605469 236.121094 376.777344 C 235.535156 377.363281 234.949219 378.53125 234.363281 379.113281 C 231.4375 378.53125 228.511719 377.945312 225.585938 377.945312 C 221.492188 378.53125 218.566406 380.285156 216.226562 383.207031 C 213.886719 386.132812 213.300781 389.640625 213.886719 393.148438 C 214.46875 394.90625 215.054688 396.074219 216.226562 397.828125 C 216.8125 399.582031 218.566406 401.335938 219.734375 402.507812 C 218.859375 403.964844 217.984375 405.574219 217.105469 407.179688 C 216.226562 408.789062 215.347656 410.398438 214.46875 411.863281 C 213.425781 411.167969 212.796875 410.472656 212.210938 409.652344 C 211.8125 409.09375 211.433594 408.480469 210.957031 407.769531 C 209.789062 406.015625 209.203125 404.847656 208.617188 403.089844 C 208.289062 402.761719 207.773438 402.429688 207.28125 402.3125 C 206.898438 402.21875 206.535156 402.25 206.277344 402.507812 C 204.523438 403.089844 203.351562 404.261719 201.597656 404.847656 C 200.425781 404.847656 199.84375 406.015625 200.425781 407.183594 C 201.011719 409.523438 202.183594 411.863281 203.9375 413.617188 L 209.203125 418.878906 C 208.308594 419.773438 207.753906 421.011719 207.285156 422.066406 C 207.136719 422.390625 207 422.699219 206.863281 422.972656 C 206.277344 424.144531 206.863281 424.726562 207.449219 425.3125 L 210.957031 427.066406 C 211.644531 427.410156 212.128906 427.550781 212.53125 427.375 C 212.816406 427.25 213.058594 426.96875 213.300781 426.484375 C 214.46875 425.3125 215.054688 423.558594 215.640625 422.390625 C 216.753906 422.761719 218.101562 423.128906 219.386719 423.351562 C 220.128906 423.480469 220.847656 423.558594 221.492188 423.558594 C 223.832031 423.558594 225.585938 422.972656 227.34375 422.390625 C 231.4375 420.636719 234.363281 416.539062 234.949219 412.449219 C 235.535156 409.523438 234.949219 407.183594 233.777344 404.847656 C 232.609375 402.507812 230.273438 400.171875 228.519531 398.421875 Z M 227.929688 385.546875 C 226.171875 387.886719 225.003906 390.8125 223.246094 393.148438 C 222.660156 391.980469 222.078125 391.394531 221.492188 389.640625 C 221.492188 387.886719 223.246094 384.964844 225.585938 384.964844 C 226.171875 384.964844 227.34375 385.546875 227.929688 385.546875 Z M 220.449219 411.34375 C 221.339844 409.636719 222.1875 408.011719 223.246094 406.601562 C 223.832031 407.183594 225.003906 408.355469 225.003906 409.523438 C 225.585938 411.863281 224.417969 414.203125 222.078125 414.789062 C 220.90625 415.371094 219.734375 415.371094 218.566406 414.789062 C 219.261719 413.628906 219.867188 412.46875 220.449219 411.34375 Z M 220.449219 411.34375 " fill-opacity="1" fill-rule="evenodd"/></svg>